<svg xmlns="http://www.w3.org/2000/svg" viewBox="0 0 1056 536" width="1056" height="536" role="img" aria-label="12-lead ECG">
<style>.m{stroke:#ece7da;stroke-width:.6}.M{stroke:#d3ccba;stroke-width:1.1}.tr{fill:none;stroke:#1a1915;stroke-width:1.6;stroke-linejoin:round}text{font:600 13px system-ui,sans-serif;fill:#1a1915}.note{font:400 11px system-ui,sans-serif;fill:#6b675d}</style>
<rect width="1056" height="536" fill="#fbf9f3"/>
<g><path d="M0,0V536" class="M"/><path d="M4,0V536" class="m"/><path d="M8,0V536" class="m"/><path d="M12,0V536" class="m"/><path d="M16,0V536" class="m"/><path d="M20,0V536" class="M"/><path d="M24,0V536" class="m"/><path d="M28,0V536" class="m"/><path d="M32,0V536" class="m"/><path d="M36,0V536" class="m"/><path d="M40,0V536" class="M"/><path d="M44,0V536" class="m"/><path d="M48,0V536" class="m"/><path d="M52,0V536" class="m"/><path d="M56,0V536" class="m"/><path d="M60,0V536" class="M"/><path d="M64,0V536" class="m"/><path d="M68,0V536" class="m"/><path d="M72,0V536" class="m"/><path d="M76,0V536" class="m"/><path d="M80,0V536" class="M"/><path d="M84,0V536" class="m"/><path d="M88,0V536" class="m"/><path d="M92,0V536" class="m"/><path d="M96,0V536" class="m"/><path d="M100,0V536" class="M"/><path d="M104,0V536" class="m"/><path d="M108,0V536" class="m"/><path d="M112,0V536" class="m"/><path d="M116,0V536" class="m"/><path d="M120,0V536" class="M"/><path d="M124,0V536" class="m"/><path d="M128,0V536" class="m"/><path d="M132,0V536" class="m"/><path d="M136,0V536" class="m"/><path d="M140,0V536" class="M"/><path d="M144,0V536" class="m"/><path d="M148,0V536" class="m"/><path d="M152,0V536" class="m"/><path d="M156,0V536" class="m"/><path d="M160,0V536" class="M"/><path d="M164,0V536" class="m"/><path d="M168,0V536" class="m"/><path d="M172,0V536" class="m"/><path d="M176,0V536" class="m"/><path d="M180,0V536" class="M"/><path d="M184,0V536" class="m"/><path d="M188,0V536" class="m"/><path d="M192,0V536" class="m"/><path d="M196,0V536" class="m"/><path d="M200,0V536" class="M"/><path d="M204,0V536" class="m"/><path d="M208,0V536" class="m"/><path d="M212,0V536" class="m"/><path d="M216,0V536" class="m"/><path d="M220,0V536" class="M"/><path d="M224,0V536" class="m"/><path d="M228,0V536" class="m"/><path d="M232,0V536" class="m"/><path d="M236,0V536" class="m"/><path d="M240,0V536" class="M"/><path d="M244,0V536" class="m"/><path d="M248,0V536" class="m"/><path d="M252,0V536" class="m"/><path d="M256,0V536" class="m"/><path d="M260,0V536" class="M"/><path d="M264,0V536" class="m"/><path d="M268,0V536" class="m"/><path d="M272,0V536" class="m"/><path d="M276,0V536" class="m"/><path d="M280,0V536" class="M"/><path d="M284,0V536" class="m"/><path d="M288,0V536" class="m"/><path d="M292,0V536" class="m"/><path d="M296,0V536" class="m"/><path d="M300,0V536" class="M"/><path d="M304,0V536" class="m"/><path d="M308,0V536" class="m"/><path d="M312,0V536" class="m"/><path d="M316,0V536" class="m"/><path d="M320,0V536" class="M"/><path d="M324,0V536" class="m"/><path d="M328,0V536" class="m"/><path d="M332,0V536" class="m"/><path d="M336,0V536" class="m"/><path d="M340,0V536" class="M"/><path d="M344,0V536" class="m"/><path d="M348,0V536" class="m"/><path d="M352,0V536" class="m"/><path d="M356,0V536" class="m"/><path d="M360,0V536" class="M"/><path d="M364,0V536" class="m"/><path d="M368,0V536" class="m"/><path d="M372,0V536" class="m"/><path d="M376,0V536" class="m"/><path d="M380,0V536" class="M"/><path d="M384,0V536" class="m"/><path d="M388,0V536" class="m"/><path d="M392,0V536" class="m"/><path d="M396,0V536" class="m"/><path d="M400,0V536" class="M"/><path d="M404,0V536" class="m"/><path d="M408,0V536" class="m"/><path d="M412,0V536" class="m"/><path d="M416,0V536" class="m"/><path d="M420,0V536" class="M"/><path d="M424,0V536" class="m"/><path d="M428,0V536" class="m"/><path d="M432,0V536" class="m"/><path d="M436,0V536" class="m"/><path d="M440,0V536" class="M"/><path d="M444,0V536" class="m"/><path d="M448,0V536" class="m"/><path d="M452,0V536" class="m"/><path d="M456,0V536" class="m"/><path d="M460,0V536" class="M"/><path d="M464,0V536" class="m"/><path d="M468,0V536" class="m"/><path d="M472,0V536" class="m"/><path d="M476,0V536" class="m"/><path d="M480,0V536" class="M"/><path d="M484,0V536" class="m"/><path d="M488,0V536" class="m"/><path d="M492,0V536" class="m"/><path d="M496,0V536" class="m"/><path d="M500,0V536" class="M"/><path d="M504,0V536" class="m"/><path d="M508,0V536" class="m"/><path d="M512,0V536" class="m"/><path d="M516,0V536" class="m"/><path d="M520,0V536" class="M"/><path d="M524,0V536" class="m"/><path d="M528,0V536" class="m"/><path d="M532,0V536" class="m"/><path d="M536,0V536" class="m"/><path d="M540,0V536" class="M"/><path d="M544,0V536" class="m"/><path d="M548,0V536" class="m"/><path d="M552,0V536" class="m"/><path d="M556,0V536" class="m"/><path d="M560,0V536" class="M"/><path d="M564,0V536" class="m"/><path d="M568,0V536" class="m"/><path d="M572,0V536" class="m"/><path d="M576,0V536" class="m"/><path d="M580,0V536" class="M"/><path d="M584,0V536" class="m"/><path d="M588,0V536" class="m"/><path d="M592,0V536" class="m"/><path d="M596,0V536" class="m"/><path d="M600,0V536" class="M"/><path d="M604,0V536" class="m"/><path d="M608,0V536" class="m"/><path d="M612,0V536" class="m"/><path d="M616,0V536" class="m"/><path d="M620,0V536" class="M"/><path d="M624,0V536" class="m"/><path d="M628,0V536" class="m"/><path d="M632,0V536" class="m"/><path d="M636,0V536" class="m"/><path d="M640,0V536" class="M"/><path d="M644,0V536" class="m"/><path d="M648,0V536" class="m"/><path d="M652,0V536" class="m"/><path d="M656,0V536" class="m"/><path d="M660,0V536" class="M"/><path d="M664,0V536" class="m"/><path d="M668,0V536" class="m"/><path d="M672,0V536" class="m"/><path d="M676,0V536" class="m"/><path d="M680,0V536" class="M"/><path d="M684,0V536" class="m"/><path d="M688,0V536" class="m"/><path d="M692,0V536" class="m"/><path d="M696,0V536" class="m"/><path d="M700,0V536" class="M"/><path d="M704,0V536" class="m"/><path d="M708,0V536" class="m"/><path d="M712,0V536" class="m"/><path d="M716,0V536" class="m"/><path d="M720,0V536" class="M"/><path d="M724,0V536" class="m"/><path d="M728,0V536" class="m"/><path d="M732,0V536" class="m"/><path d="M736,0V536" class="m"/><path d="M740,0V536" class="M"/><path d="M744,0V536" class="m"/><path d="M748,0V536" class="m"/><path d="M752,0V536" class="m"/><path d="M756,0V536" class="m"/><path d="M760,0V536" class="M"/><path d="M764,0V536" class="m"/><path d="M768,0V536" class="m"/><path d="M772,0V536" class="m"/><path d="M776,0V536" class="m"/><path d="M780,0V536" class="M"/><path d="M784,0V536" class="m"/><path d="M788,0V536" class="m"/><path d="M792,0V536" class="m"/><path d="M796,0V536" class="m"/><path d="M800,0V536" class="M"/><path d="M804,0V536" class="m"/><path d="M808,0V536" class="m"/><path d="M812,0V536" class="m"/><path d="M816,0V536" class="m"/><path d="M820,0V536" class="M"/><path d="M824,0V536" class="m"/><path d="M828,0V536" class="m"/><path d="M832,0V536" class="m"/><path d="M836,0V536" class="m"/><path d="M840,0V536" class="M"/><path d="M844,0V536" class="m"/><path d="M848,0V536" class="m"/><path d="M852,0V536" class="m"/><path d="M856,0V536" class="m"/><path d="M860,0V536" class="M"/><path d="M864,0V536" class="m"/><path d="M868,0V536" class="m"/><path d="M872,0V536" class="m"/><path d="M876,0V536" class="m"/><path d="M880,0V536" class="M"/><path d="M884,0V536" class="m"/><path d="M888,0V536" class="m"/><path d="M892,0V536" class="m"/><path d="M896,0V536" class="m"/><path d="M900,0V536" class="M"/><path d="M904,0V536" class="m"/><path d="M908,0V536" class="m"/><path d="M912,0V536" class="m"/><path d="M916,0V536" class="m"/><path d="M920,0V536" class="M"/><path d="M924,0V536" class="m"/><path d="M928,0V536" class="m"/><path d="M932,0V536" class="m"/><path d="M936,0V536" class="m"/><path d="M940,0V536" class="M"/><path d="M944,0V536" class="m"/><path d="M948,0V536" class="m"/><path d="M952,0V536" class="m"/><path d="M956,0V536" class="m"/><path d="M960,0V536" class="M"/><path d="M964,0V536" class="m"/><path d="M968,0V536" class="m"/><path d="M972,0V536" class="m"/><path d="M976,0V536" class="m"/><path d="M980,0V536" class="M"/><path d="M984,0V536" class="m"/><path d="M988,0V536" class="m"/><path d="M992,0V536" class="m"/><path d="M996,0V536" class="m"/><path d="M1000,0V536" class="M"/><path d="M1004,0V536" class="m"/><path d="M1008,0V536" class="m"/><path d="M1012,0V536" class="m"/><path d="M1016,0V536" class="m"/><path d="M1020,0V536" class="M"/><path d="M1024,0V536" class="m"/><path d="M1028,0V536" class="m"/><path d="M1032,0V536" class="m"/><path d="M1036,0V536" class="m"/><path d="M1040,0V536" class="M"/><path d="M1044,0V536" class="m"/><path d="M1048,0V536" class="m"/><path d="M1052,0V536" class="m"/><path d="M1056,0V536" class="m"/><path d="M0,0H1056" class="M"/><path d="M0,4H1056" class="m"/><path d="M0,8H1056" class="m"/><path d="M0,12H1056" class="m"/><path d="M0,16H1056" class="m"/><path d="M0,20H1056" class="M"/><path d="M0,24H1056" class="m"/><path d="M0,28H1056" class="m"/><path d="M0,32H1056" class="m"/><path d="M0,36H1056" class="m"/><path d="M0,40H1056" class="M"/><path d="M0,44H1056" class="m"/><path d="M0,48H1056" class="m"/><path d="M0,52H1056" class="m"/><path d="M0,56H1056" class="m"/><path d="M0,60H1056" class="M"/><path d="M0,64H1056" class="m"/><path d="M0,68H1056" class="m"/><path d="M0,72H1056" class="m"/><path d="M0,76H1056" class="m"/><path d="M0,80H1056" class="M"/><path d="M0,84H1056" class="m"/><path d="M0,88H1056" class="m"/><path d="M0,92H1056" class="m"/><path d="M0,96H1056" class="m"/><path d="M0,100H1056" class="M"/><path d="M0,104H1056" class="m"/><path d="M0,108H1056" class="m"/><path d="M0,112H1056" class="m"/><path d="M0,116H1056" class="m"/><path d="M0,120H1056" class="M"/><path d="M0,124H1056" class="m"/><path d="M0,128H1056" class="m"/><path d="M0,132H1056" class="m"/><path d="M0,136H1056" class="m"/><path d="M0,140H1056" class="M"/><path d="M0,144H1056" class="m"/><path d="M0,148H1056" class="m"/><path d="M0,152H1056" class="m"/><path d="M0,156H1056" class="m"/><path d="M0,160H1056" class="M"/><path d="M0,164H1056" class="m"/><path d="M0,168H1056" class="m"/><path d="M0,172H1056" class="m"/><path d="M0,176H1056" class="m"/><path d="M0,180H1056" class="M"/><path d="M0,184H1056" class="m"/><path d="M0,188H1056" class="m"/><path d="M0,192H1056" class="m"/><path d="M0,196H1056" class="m"/><path d="M0,200H1056" class="M"/><path d="M0,204H1056" class="m"/><path d="M0,208H1056" class="m"/><path d="M0,212H1056" class="m"/><path d="M0,216H1056" class="m"/><path d="M0,220H1056" class="M"/><path d="M0,224H1056" class="m"/><path d="M0,228H1056" class="m"/><path d="M0,232H1056" class="m"/><path d="M0,236H1056" class="m"/><path d="M0,240H1056" class="M"/><path d="M0,244H1056" class="m"/><path d="M0,248H1056" class="m"/><path d="M0,252H1056" class="m"/><path d="M0,256H1056" class="m"/><path d="M0,260H1056" class="M"/><path d="M0,264H1056" class="m"/><path d="M0,268H1056" class="m"/><path d="M0,272H1056" class="m"/><path d="M0,276H1056" class="m"/><path d="M0,280H1056" class="M"/><path d="M0,284H1056" class="m"/><path d="M0,288H1056" class="m"/><path d="M0,292H1056" class="m"/><path d="M0,296H1056" class="m"/><path d="M0,300H1056" class="M"/><path d="M0,304H1056" class="m"/><path d="M0,308H1056" class="m"/><path d="M0,312H1056" class="m"/><path d="M0,316H1056" class="m"/><path d="M0,320H1056" class="M"/><path d="M0,324H1056" class="m"/><path d="M0,328H1056" class="m"/><path d="M0,332H1056" class="m"/><path d="M0,336H1056" class="m"/><path d="M0,340H1056" class="M"/><path d="M0,344H1056" class="m"/><path d="M0,348H1056" class="m"/><path d="M0,352H1056" class="m"/><path d="M0,356H1056" class="m"/><path d="M0,360H1056" class="M"/><path d="M0,364H1056" class="m"/><path d="M0,368H1056" class="m"/><path d="M0,372H1056" class="m"/><path d="M0,376H1056" class="m"/><path d="M0,380H1056" class="M"/><path d="M0,384H1056" class="m"/><path d="M0,388H1056" class="m"/><path d="M0,392H1056" class="m"/><path d="M0,396H1056" class="m"/><path d="M0,400H1056" class="M"/><path d="M0,404H1056" class="m"/><path d="M0,408H1056" class="m"/><path d="M0,412H1056" class="m"/><path d="M0,416H1056" class="m"/><path d="M0,420H1056" class="M"/><path d="M0,424H1056" class="m"/><path d="M0,428H1056" class="m"/><path d="M0,432H1056" class="m"/><path d="M0,436H1056" class="m"/><path d="M0,440H1056" class="M"/><path d="M0,444H1056" class="m"/><path d="M0,448H1056" class="m"/><path d="M0,452H1056" class="m"/><path d="M0,456H1056" class="m"/><path d="M0,460H1056" class="M"/><path d="M0,464H1056" class="m"/><path d="M0,468H1056" class="m"/><path d="M0,472H1056" class="m"/><path d="M0,476H1056" class="m"/><path d="M0,480H1056" class="M"/><path d="M0,484H1056" class="m"/><path d="M0,488H1056" class="m"/><path d="M0,492H1056" class="m"/><path d="M0,496H1056" class="m"/><path d="M0,500H1056" class="M"/><path d="M0,504H1056" class="m"/><path d="M0,508H1056" class="m"/><path d="M0,512H1056" class="m"/><path d="M0,516H1056" class="m"/><path d="M0,520H1056" class="M"/><path d="M0,524H1056" class="m"/><path d="M0,528H1056" class="m"/><path d="M0,532H1056" class="m"/><path d="M0,536H1056" class="m"/></g>
<path class="tr" d="M8,96h8v-40h20v40h8M40.0,95.2L41.6,94.2L42.8,94.2L46.8,96.4L48.8,96.8L56.8,96.3L60.8,94.7L62.4,95.3L63.2,90.9L64.8,68.6L65.2,69.1L66.8,95.4L67.6,101.0L68.0,101.2L69.6,98.4L74.4,93.8L76.4,94.0L80.4,97.0L82.4,96.6L90.0,87.1L92.4,85.7L94.0,86.5L94.4,85.5L96.4,60.6L96.8,60.9L97.2,65.6L98.8,92.8L99.6,96.1L101.2,95.5L103.6,95.8L108.0,93.5L109.6,94.1L112.8,96.9L114.4,97.0L116.4,95.0L120.8,87.0L122.0,85.8L123.6,85.4L126.8,87.3L134.4,95.3L136.4,95.7L140.0,94.2L141.6,94.2L147.2,99.2L148.0,95.3L150.0,69.5L152.4,97.3L154.8,94.1L159.6,97.2L162.4,96.9L168.8,93.8L174.4,87.2L176.4,86.2L178.0,87.0L182.0,90.3L187.2,91.9L189.2,94.1L190.8,97.0L191.6,94.0L193.6,70.6L195.2,94.4L196.0,99.8L198.0,95.8L199.2,94.9L200.8,94.8L205.6,96.0L210.8,95.6L212.8,94.9L214.8,92.8L218.8,85.5L220.4,84.2L222.4,85.5L226.0,91.7L227.6,93.3L228.8,93.7L232.8,93.2L238.4,96.9L242.8,96.5L244.4,97.1L245.2,93.7L247.2,68.5L249.6,98.2L250.0,98.6L251.6,95.3L252.8,94.7L254.8,95.3L258.0,97.7L259.6,98.1L261.2,97.2L266.0,91.7L268.0,91.0L270.0,91.7L270.4,90.7L272.8,61.3L275.2,89.4L275.6,89.6L277.2,86.8L278.0,86.8L284.0,93.6L290.0,95.7M290.0,98.0L293.2,100.6L298.0,102.5L302.0,105.6L303.6,106.0L305.6,104.6L309.6,97.4L311.6,95.2L313.2,94.9L317.6,96.7L320.4,96.5L322.0,96.0L323.6,93.3L324.4,95.8L324.8,100.0L326.4,124.0L328.4,100.3L329.2,96.0L330.0,94.9L332.8,94.6L336.8,97.9L338.4,98.5L342.8,96.5L344.4,96.8L346.0,98.8L349.6,105.8L351.6,107.6L353.6,106.5L356.4,102.6L359.2,96.0L360.0,98.1L362.0,124.7L364.0,100.1L364.8,96.3L366.4,95.7L370.0,97.6L371.6,97.8L376.0,95.1L377.6,95.0L379.6,97.2L383.2,104.3L384.8,103.6L385.2,104.1L387.6,133.6L389.6,109.1L390.4,104.0L391.2,102.3L396.0,98.7L399.6,97.1L402.0,97.5L408.8,101.2L409.6,101.3L411.2,100.1L412.0,104.6L414.0,133.9L416.4,107.9L421.6,97.5L424.0,94.9L426.0,95.5L433.6,101.3L437.6,105.1L439.2,105.8L441.2,104.8L445.6,100.3L450.8,98.7L456.0,93.8L458.0,94.0L461.6,97.4L463.2,98.1L464.8,97.3L466.8,93.1L467.6,97.3L468.8,117.0L469.6,122.3L471.2,100.9L472.4,95.7L478.4,96.1L483.2,97.9L488.4,98.3L490.4,100.5L494.0,107.0L495.6,108.2L497.6,106.7L501.2,99.2L503.2,96.7L504.8,96.3L509.2,97.2L518.0,96.0L520.0,94.9L521.6,91.6L522.0,91.7L522.8,97.2L524.4,122.4L524.8,122.6L526.4,102.0L527.2,98.3L530.4,97.8L534.0,94.4L535.6,93.8L537.6,95.0L540.0,98.1M290,80v32M540.0,96.2L542.4,96.3L547.2,94.0L549.6,93.6L555.2,94.6L560.4,96.2L561.2,95.4L562.8,90.0L563.6,95.0L565.6,135.3L567.2,105.6L568.4,95.6L569.6,95.0L575.2,97.2L582.0,94.8L586.4,94.9L591.6,94.2L598.4,95.0L599.6,93.9L601.2,88.3L602.0,92.6L604.0,135.2L606.0,102.4L607.2,97.3L609.6,96.9L614.0,94.9L620.8,96.4L626.4,94.2L628.8,93.8L634.4,94.3L640.4,96.5L641.2,95.6L642.8,89.9L643.6,94.8L645.6,134.8L647.2,105.2L648.4,95.6L649.2,95.2L652.4,96.8L654.4,97.1L660.0,95.2L664.8,95.1L670.4,94.2L675.2,94.9L680.4,94.6L684.0,95.8L684.8,94.8L686.0,90.6L686.8,93.7L687.2,100.0L688.8,135.9L690.8,102.6L691.6,96.5L692.8,95.0L700.4,96.6L714.0,93.4L720.0,95.9L726.4,94.7L732.4,96.9L733.6,95.4L735.2,90.1L736.0,97.6L737.6,134.3L738.0,134.5L739.6,103.3L740.8,96.0L753.2,96.4L758.4,93.8L760.4,93.4L766.0,95.4L772.0,94.6L777.6,96.3L780.8,96.3L782.4,95.0L784.0,89.5L784.8,94.9L786.8,135.7L788.8,100.7L790.0,95.8M540,80v32M790.0,99.5L793.2,99.3L798.0,100.8L800.0,100.1L802.8,96.7L809.6,84.5L812.4,81.8L813.6,81.8L815.2,82.9L818.8,89.4L819.2,89.3L820.0,81.6L821.6,46.1L823.6,103.4L824.4,112.7L826.4,98.8L827.6,99.8L832.4,100.7L834.8,99.8L840.8,95.9L843.6,92.5L848.0,82.7L849.6,80.5L850.8,80.3L852.0,81.2L857.6,92.2L858.0,92.8L858.4,92.4L860.8,47.9L862.8,105.4L863.6,113.8L865.6,99.5L866.8,100.1L871.6,99.1L876.0,100.2L878.0,99.5L880.4,96.1L885.6,84.3L888.0,81.6L889.6,81.5L891.2,82.8L896.8,91.2L899.2,93.8L901.6,95.0L907.2,96.1L909.2,97.4L910.0,94.3L910.4,88.6L912.0,50.3L912.8,61.3L914.0,103.9L914.8,113.5L916.8,98.2L923.2,101.0L925.2,100.7L927.2,99.5L932.4,94.2L938.0,83.2L940.0,81.2L942.0,82.0L945.2,86.9L946.0,79.8L947.6,43.7L948.4,56.0L949.6,100.3L950.4,110.8L952.4,98.0L954.4,100.3L957.2,101.1L966.4,96.7L969.2,93.0L973.6,83.3L975.6,81.0L976.8,81.1L978.4,82.4L984.4,92.3L985.2,88.0L987.2,48.4L989.6,114.1L990.0,114.1L991.2,102.4L992.0,99.6L993.2,99.8L996.4,98.8L1002.0,100.4L1004.8,98.5L1011.2,87.0L1011.6,85.4L1014.0,34.9L1016.0,90.1L1016.8,99.2L1018.0,89.6L1018.8,87.4L1021.6,93.7L1024.0,97.0L1026.4,98.1L1031.2,97.6L1033.2,96.8L1035.2,94.2L1040.0,82.6M790,80v32M8,216h8v-40h20v40h8M40.0,214.7L41.6,213.3L42.8,213.3L46.8,216.6L48.8,217.2L52.4,216.6L56.4,216.6L60.8,214.0L62.4,214.1L63.2,207.9L64.8,176.8L65.2,177.6L66.8,215.5L67.6,223.6L68.0,223.9L69.6,219.6L74.4,212.7L76.4,213.0L80.4,217.5L82.4,217.0L89.6,204.1L92.0,201.7L94.0,201.9L94.8,196.4L96.4,165.7L96.8,166.1L97.2,172.8L98.8,211.9L99.6,216.5L101.2,215.5L103.6,215.8L106.8,212.7L108.0,212.3L109.6,213.2L112.8,217.4L114.4,217.7L116.4,214.7L120.8,203.2L122.0,201.6L123.2,201.1L124.8,201.7L126.8,203.8L134.4,215.2L136.4,215.7L140.0,213.3L141.6,213.3L147.2,220.1L148.0,214.4L150.0,178.2L151.6,210.6L152.4,218.0L154.8,213.1L159.6,217.9L160.8,218.1L162.4,217.4L169.2,212.5L174.0,204.1L176.0,202.3L177.6,203.0L182.0,208.2L186.8,209.6L188.8,212.4L190.8,216.8L191.6,212.5L193.6,179.9L195.2,214.1L196.0,221.7L198.0,215.7L199.2,214.3L200.8,214.2L205.6,215.9L211.2,215.4L212.8,214.6L214.8,211.6L218.8,201.1L220.4,199.3L221.2,199.5L222.4,201.2L226.0,210.2L227.6,212.5L228.8,212.9L232.8,211.9L238.4,217.3L240.0,217.6L242.8,216.7L244.0,217.0L244.8,215.6L245.2,212.0L247.2,176.7L249.6,219.4L250.0,219.9L251.6,215.0L252.8,214.0L254.8,214.9L258.0,218.6L259.6,219.1L261.2,217.8L265.6,210.2L267.6,209.0L270.0,209.3L270.4,207.8L272.8,166.9L275.2,207.2L275.6,207.4L277.2,203.1L278.0,203.0L283.6,212.2L285.6,213.8L290.0,215.7M290.0,216.0L293.2,215.4L297.6,211.8L299.6,211.0L301.2,211.5L306.0,214.8L312.0,214.8L316.8,216.2L320.0,216.4L321.6,217.4L324.0,200.7L326.0,220.7L326.8,223.4L328.4,217.1L330.0,215.4L332.8,215.3L338.4,217.1L345.6,213.2L353.6,212.7L355.6,213.0L357.2,214.5L359.6,199.0L361.6,220.0L362.4,222.4L364.0,216.6L364.8,215.7L371.6,216.9L378.8,214.1L381.2,214.4L382.8,215.5L383.6,212.4L385.2,198.1L386.0,201.8L387.2,216.3L388.0,219.2L389.6,213.1L390.4,212.1L396.0,215.1L398.8,215.8L403.6,215.8L407.6,213.9L408.8,213.9L409.6,211.7L411.6,195.9L414.0,219.3L414.4,219.4L416.4,214.2L419.2,214.7L423.6,214.4L429.6,216.1L436.4,212.7L440.0,211.8L443.6,212.6L450.0,216.6L451.6,216.6L455.2,215.1L457.2,214.8L464.4,218.1L465.2,215.5L466.8,200.8L467.2,200.8L468.8,218.6L469.6,222.7L472.0,215.9L483.6,216.3L491.2,212.2L496.8,213.4L502.0,213.6L508.4,216.3L517.6,216.1L519.6,216.9L520.4,213.9L522.0,199.9L524.8,223.0L526.4,217.9L527.2,217.0L530.0,217.0L535.6,214.8L540.0,215.9M290,200v32M540.0,213.9L542.4,210.9L547.2,199.0L549.6,195.7L550.8,195.9L552.4,197.7L558.0,210.2L560.4,213.8L561.2,212.7L562.8,202.2L563.6,209.5L565.6,270.7L567.2,229.8L568.4,215.8L569.6,215.0L575.2,217.0L578.4,215.3L583.2,209.7L588.8,198.4L590.8,196.3L592.0,196.5L593.2,197.8L598.8,209.1L599.6,208.5L600.0,206.9L601.2,198.9L601.6,199.8L604.0,270.0L606.0,224.4L606.8,218.0L607.2,217.3L609.6,216.8L613.6,214.9L618.0,214.6L620.0,213.5L622.4,209.6L626.8,198.8L629.2,195.9L630.4,196.1L632.0,197.9L637.6,210.5L640.0,214.4L640.8,214.3L641.2,213.2L642.8,202.2L643.2,203.4L645.6,270.3L647.2,229.3L648.4,215.9L649.2,215.2L652.8,216.9L654.8,217.0L660.4,213.3L663.6,209.4L668.4,198.9L670.4,196.4L671.6,196.4L672.8,197.5L678.8,209.0L683.6,214.9L684.4,214.1L684.8,212.5L686.0,203.6L686.4,203.4L688.8,271.2L690.8,225.3L691.6,216.9L692.8,215.0L699.6,216.4L701.6,215.8L703.6,214.3L706.8,209.9L711.6,198.7L713.6,195.7L714.8,195.6L716.4,197.4L720.8,207.9L722.8,211.1L731.6,216.7L732.4,216.8L733.2,215.6L735.2,202.8L736.0,214.1L737.6,269.2L738.0,269.9L739.6,226.5L740.8,216.1L741.6,215.7L750.4,215.7L752.8,214.6L755.2,211.0L760.4,198.3L761.6,196.7L762.8,196.3L765.2,198.4L773.2,212.2L775.6,214.8L778.0,216.1L780.8,216.3L782.0,215.2L784.0,202.4L784.8,210.1L786.8,271.3L788.8,222.7L790.0,215.9M540,200v32M790.0,219.4L793.2,219.3L798.0,220.8L800.0,220.3L802.4,217.9L809.2,208.4L812.4,205.8L814.0,205.7L815.2,206.3L818.8,211.1L819.2,210.7L820.0,202.0L821.6,162.5L823.6,216.1L824.4,225.1L826.0,218.4L826.4,218.2L827.6,219.8L832.4,220.7L841.2,216.5L844.0,213.8L848.0,206.4L850.0,204.3L851.2,204.3L852.4,205.2L857.6,213.3L858.0,213.7L858.4,213.1L860.8,163.9L862.8,217.8L863.6,226.1L864.8,220.4L865.6,219.0L866.8,220.1L871.2,219.1L876.4,220.3L878.4,219.6L880.4,217.1L885.6,207.6L888.4,205.4L891.2,206.4L899.2,214.3L901.2,215.1L906.4,215.8L909.2,217.4L910.0,214.0L910.4,207.8L912.0,166.0L912.8,176.4L914.0,216.4L914.8,225.5L916.8,217.5L918.0,218.9L922.0,220.7L924.8,220.9L927.6,219.3L932.0,215.8L938.0,206.9L939.6,205.3L940.8,205.1L942.0,205.7L944.8,209.4L945.2,209.1L946.0,201.0L947.6,160.8L948.4,172.1L949.6,213.4L950.4,223.4L952.0,217.6L954.0,220.1L956.8,221.1L967.2,216.9L969.6,214.0L973.6,206.9L975.6,205.0L976.8,205.0L978.4,205.9L984.4,213.2L985.2,208.1L987.2,164.3L989.6,226.0L990.0,226.8L991.6,219.3L993.2,219.8L996.8,218.8L1002.0,220.5L1003.6,220.0L1005.2,218.6L1011.2,209.9L1011.6,208.3L1014.0,154.5L1016.0,206.4L1016.8,215.2L1018.4,209.6L1021.2,214.8L1024.0,217.9L1026.0,218.4L1032.8,217.8L1035.6,215.2L1040.0,206.3M790,200v32M8,336h8v-40h20v40h8M40.0,335.6L42.8,335.1L48.8,336.4L56.8,336.2L60.8,335.4L62.4,336.3L63.2,333.1L64.8,316.7L67.6,344.2L69.6,337.7L72.8,335.5L75.6,334.8L80.0,336.4L81.6,336.4L83.6,335.6L90.8,330.3L92.4,329.9L94.0,330.9L94.8,328.2L96.4,311.9L97.2,316.1L99.2,340.8L101.6,335.8L108.0,334.7L112.8,336.4L114.4,336.4L116.4,335.2L120.8,330.8L123.2,329.7L126.8,330.7L134.4,335.5L136.4,335.8L142.0,335.2L145.6,336.8L147.2,338.3L148.0,335.5L149.2,321.3L150.0,317.2L152.4,342.3L154.8,335.3L159.6,336.6L162.4,336.5L169.2,334.5L174.0,331.1L176.0,330.2L187.2,333.8L189.2,335.0L190.8,337.1L191.6,334.9L192.8,321.4L193.6,317.8L196.0,343.6L197.6,337.6L198.8,335.6L206.0,336.0L212.4,335.4L214.8,334.0L218.8,329.9L220.4,329.1L222.4,329.8L226.0,333.2L228.0,334.3L233.2,334.6L238.8,336.5L242.8,336.3L244.4,337.2L245.2,334.9L247.2,316.7L249.6,342.8L251.6,336.4L252.4,335.5L254.0,335.4L259.6,337.0L266.8,333.4L268.4,333.1L270.0,333.9L270.8,331.2L272.8,312.2L275.2,337.4L276.8,332.1L278.0,330.6L284.0,334.6L290.0,335.8M290.0,335.7L291.6,335.5L293.2,334.1L297.6,325.9L299.6,324.1L301.2,325.1L306.4,332.9L308.0,333.4L311.6,333.3L316.8,336.4L320.0,336.7L321.2,337.4L322.0,335.3L322.4,331.4L324.0,308.9L326.0,337.2L326.8,341.3L328.8,335.9L330.4,334.6L332.8,334.6L336.8,337.7L338.4,338.1L340.4,336.6L344.8,330.2L346.8,328.8L354.0,327.5L355.2,327.9L357.2,330.1L359.6,304.7L362.0,338.4L362.4,339.3L364.0,335.6L364.8,335.0L370.0,337.5L372.0,337.6L378.0,332.1L380.0,331.7L382.4,332.5L382.8,332.2L383.6,326.6L385.2,301.8L386.0,306.8L387.2,326.8L388.0,330.9L389.6,326.6L390.4,326.1L396.8,334.4L399.6,335.5L403.2,335.5L405.6,333.6L408.8,329.0L409.2,327.6L411.6,297.3L413.6,328.0L414.4,331.8L416.0,330.0L418.8,332.2L423.6,332.5L428.0,335.6L429.6,335.8L431.6,334.3L436.8,327.3L438.4,326.1L440.4,325.7L442.0,326.3L443.6,327.7L448.4,335.3L450.0,336.9L452.0,336.8L455.2,334.1L456.8,333.6L458.4,334.3L461.6,337.4L464.0,338.9L464.8,337.3L465.2,334.0L466.4,313.9L467.2,308.7L468.8,333.9L469.6,339.7L472.0,335.5L482.0,336.8L483.6,336.5L485.6,334.6L489.6,328.3L492.0,326.8L496.8,328.9L501.6,330.1L508.4,336.6L518.0,336.1L519.2,336.6L520.0,334.6L520.4,331.0L522.0,307.3L524.8,340.4L526.8,337.6L530.0,338.0L535.2,333.6L536.8,333.7L540.0,335.6M290,320v32M540.0,333.9L542.8,330.1L547.6,318.1L548.8,316.3L550.0,315.7L551.2,316.2L552.4,317.7L558.4,331.0L560.4,333.5L561.2,331.0L562.8,310.5L563.2,310.2L565.6,370.1L567.6,339.5L568.4,335.5L569.6,335.0L574.8,337.1L576.4,336.7L578.4,335.3L583.2,329.7L588.8,318.4L590.8,316.3L592.0,316.5L593.2,317.8L598.0,328.0L598.8,328.9L599.2,328.5L601.6,306.8L604.0,369.3L606.0,341.6L606.8,337.6L613.6,334.9L618.0,334.6L620.0,333.5L622.4,329.6L627.2,318.0L628.4,316.4L629.6,315.8L630.8,316.4L632.0,317.9L638.0,331.4L639.6,334.0L640.4,334.3L641.2,331.4L642.8,310.5L643.2,310.2L645.6,369.7L647.2,344.1L648.4,335.5L649.2,335.2L652.4,336.8L654.4,337.0L656.8,336.1L660.0,333.7L663.2,330.0L668.4,318.9L669.6,317.1L670.8,316.3L672.8,317.5L678.8,329.0L682.0,333.4L683.6,334.7L684.8,329.8L686.4,310.7L688.8,370.4L689.2,370.4L690.8,341.9L691.6,336.4L692.4,335.2L693.6,334.9L700.0,336.3L703.6,334.3L706.4,330.6L712.0,317.9L714.0,315.5L715.2,315.8L716.4,317.4L720.8,327.9L722.8,331.1L724.8,332.7L732.0,336.8L732.8,336.0L733.6,331.4L735.2,310.3L736.0,320.1L737.2,360.5L738.0,369.9L739.6,342.5L740.4,336.7L741.2,335.7L750.0,335.7L752.8,334.6L755.2,331.0L760.0,319.1L762.0,316.5L763.2,316.4L764.8,317.8L770.8,328.7L774.4,333.6L777.6,336.0L780.8,336.2L781.6,335.6L782.4,332.0L784.0,310.6L784.4,310.5L786.8,370.7L788.8,340.3L790.0,335.8M540,320v32M790.0,338.6L793.2,338.5L798.0,340.0L800.0,339.6L808.8,329.7L812.8,327.1L815.6,327.9L818.8,331.9L819.2,331.8L820.0,325.2L821.6,294.5L823.6,333.1L824.4,339.7L826.0,337.2L827.6,339.1L832.0,340.0L842.0,335.8L844.4,333.5L848.4,327.1L850.4,325.6L852.4,326.5L858.0,334.3L858.4,334.0L860.8,295.7L862.8,334.6L863.6,340.8L865.2,338.0L866.8,339.3L871.2,338.3L876.0,339.6L878.0,339.3L880.4,336.7L885.2,328.9L886.8,327.3L888.4,326.8L891.6,328.0L899.2,334.5L906.0,335.7L909.2,337.5L909.6,337.2L910.4,330.3L912.0,297.6L912.8,305.0L914.0,333.5L914.8,340.1L916.4,336.7L918.0,338.1L922.4,340.0L924.0,340.2L926.0,339.6L932.4,335.2L938.0,328.0L940.0,326.6L942.4,327.4L945.2,330.5L946.0,324.3L947.6,293.0L950.4,338.2L950.8,338.3L952.0,336.4L954.0,339.3L957.2,340.3L962.4,337.9L966.8,336.7L969.2,334.7L974.0,327.6L976.0,326.4L977.6,326.7L979.2,327.9L984.4,333.8L985.2,330.1L987.2,296.0L989.6,340.7L990.0,341.6L991.6,338.3L992.8,339.0L996.8,338.0L1001.2,339.7L1003.2,339.5L1006.0,337.1L1011.2,330.8L1011.6,329.6L1014.0,287.4L1016.0,324.6L1016.8,331.1L1018.4,329.6L1021.2,334.8L1024.4,337.6L1032.4,337.4L1034.0,336.8L1035.6,335.3L1040.0,327.4M790,320v32M8,456h8v-40h20v40h8M40.0,454.7L41.6,453.3L42.8,453.3L46.8,456.6L48.8,457.2L52.4,456.6L56.4,456.6L60.8,454.0L62.4,454.1L63.2,447.9L64.8,416.8L65.2,417.6L66.8,455.5L67.6,463.6L68.0,463.9L69.6,459.6L74.4,452.7L76.4,453.0L80.4,457.5L82.4,457.0L89.6,444.1L92.0,441.7L94.0,441.9L94.8,436.4L96.4,405.7L96.8,406.1L97.2,412.8L98.8,451.9L99.6,456.5L101.2,455.5L103.6,455.8L106.8,452.7L108.0,452.3L109.6,453.2L112.8,457.4L114.4,457.7L116.4,454.7L120.8,443.2L122.0,441.6L123.2,441.1L124.8,441.7L126.8,443.8L134.4,455.2L136.4,455.7L140.0,453.3L141.6,453.3L147.2,460.1L148.0,454.4L150.0,418.2L151.6,450.6L152.4,458.0L154.8,453.1L159.6,457.9L160.8,458.1L162.4,457.4L169.2,452.5L174.0,444.1L176.0,442.3L177.6,443.0L182.0,448.2L186.8,449.6L188.8,452.4L190.8,456.8L191.6,452.5L193.6,419.9L195.2,454.1L196.0,461.7L198.0,455.7L199.2,454.3L200.8,454.2L205.6,455.9L211.2,455.4L212.8,454.6L214.8,451.6L218.8,441.1L220.4,439.3L221.2,439.5L222.4,441.2L226.0,450.2L227.6,452.5L228.8,452.9L232.8,451.9L238.4,457.3L240.0,457.6L242.8,456.7L244.0,457.0L244.8,455.6L245.2,452.0L247.2,416.7L249.6,459.4L250.0,459.9L251.6,455.0L252.8,454.0L254.8,454.9L258.0,458.6L259.6,459.1L261.2,457.8L265.6,450.2L267.6,449.0L270.0,449.3L270.4,447.8L272.8,406.9L275.2,447.2L275.6,447.4L277.2,443.1L278.0,443.0L283.6,452.2L285.2,453.5L289.2,455.5L291.2,455.6L292.8,454.2L297.6,441.6L298.8,439.6L299.6,439.2L301.2,440.7L304.8,449.4L306.4,451.8L308.0,452.5L311.6,452.0L316.8,456.6L321.2,457.4L322.4,448.8L324.0,417.3L326.0,455.5L326.8,461.2L328.8,455.6L331.2,453.6L333.2,454.1L337.2,458.9L338.8,459.0L340.4,457.0L344.4,448.3L346.4,446.1L353.6,444.1L355.2,444.7L356.8,447.1L357.2,446.9L359.6,411.2L362.0,456.8L362.4,458.3L364.0,455.0L365.2,454.5L370.0,458.3L372.0,458.4L377.6,450.6L379.6,449.9L382.4,450.7L382.8,450.0L383.6,442.2L385.2,407.5L385.6,407.8L386.0,414.1L387.2,440.9L388.0,446.5L389.6,442.3L390.4,441.9L396.4,453.4L398.8,455.1L402.4,455.6L404.0,454.9L405.6,452.8L408.4,446.6L409.2,443.3L411.6,400.7L413.6,442.4L414.4,448.0L416.0,447.6L419.2,451.1L423.6,451.0L428.0,455.5L429.6,455.9L431.6,453.8L436.8,443.7L438.8,441.9L440.8,441.6L443.6,444.3L448.4,455.2L450.0,457.5L450.8,457.8L452.0,457.3L455.2,453.2L456.8,452.4L458.4,453.5L461.6,458.1L464.0,459.7L464.8,457.1L465.2,452.4L466.4,424.4L467.2,416.8L468.8,450.9L469.2,456.3L470.0,458.9L471.2,455.8L472.0,455.1L478.4,456.0L482.0,457.2L483.6,456.8L485.6,454.1L489.6,445.0L490.8,443.5L492.0,443.1L496.8,446.3L501.6,447.6L506.8,455.4L508.4,457.0L510.0,457.3L513.6,456.4L519.2,456.2L520.4,448.0L522.0,414.8L522.8,422.4L524.0,452.0L524.4,457.3L525.2,460.1L526.8,458.2L528.8,459.3L530.0,459.0L534.0,453.4L535.6,452.2L537.2,452.8L540.0,455.5L541.6,455.4L543.2,453.2L547.2,443.4L548.4,441.6L549.6,440.9L551.2,441.5L553.6,444.4L560.4,456.8L561.2,453.1L563.2,417.9L565.6,459.0L566.0,459.3L567.6,453.6L568.8,452.6L570.4,453.8L573.6,458.6L575.2,459.4L576.8,458.3L581.2,451.6L585.6,448.4L589.2,443.9L590.8,442.7L592.8,443.4L598.8,451.3L599.6,447.7L601.6,412.2L603.6,453.9L604.0,458.3L604.8,460.2L606.0,458.8L608.0,459.5L609.2,459.0L612.8,453.7L614.4,452.5L616.0,452.9L619.2,455.7L620.8,455.4L622.4,453.1L626.4,444.1L627.6,442.4L629.2,441.5L631.2,442.1L633.6,444.6L640.4,458.0L641.2,453.8L643.2,417.3L645.6,457.6L646.0,458.0L647.6,453.2L648.4,452.8L652.4,458.3L654.0,459.3L655.6,458.4L660.0,452.8L664.4,450.1L668.8,443.8L670.4,442.7L672.0,443.3L676.4,448.2L680.4,450.5L684.0,456.3L684.8,450.1L686.4,419.9L688.4,457.2L689.2,462.5L691.2,455.1L692.4,453.3L694.4,453.0L698.8,457.4L701.2,457.3L706.8,451.7L712.0,442.2L714.0,440.4L716.0,442.4L719.2,449.9L720.8,452.5L722.4,453.0L725.2,451.6L726.8,451.8L732.0,459.2L732.4,459.7L732.8,459.4L733.6,452.7L735.2,418.8L735.6,418.6L737.2,452.7L738.0,459.4L740.4,454.7L744.0,455.7L748.0,455.8L751.2,456.8L753.2,456.2L755.2,453.0L759.2,442.9L760.4,441.4L761.2,441.2L762.8,442.5L766.4,447.8L768.0,448.9L772.0,450.0L777.2,456.4L778.8,457.2L781.6,457.4L782.4,452.5L784.4,416.9L786.8,460.4L787.2,461.1L789.2,455.6L792.0,453.7L794.0,454.5L797.6,458.7L799.2,458.9L801.2,456.2L805.2,447.4L807.2,445.4L813.6,444.4L815.2,444.7L816.8,445.9L819.2,449.7L820.0,443.5L821.6,413.5L823.6,452.5L824.4,459.1L826.4,455.5L827.6,455.8L830.8,458.2L832.0,458.4L833.6,457.4L838.0,451.7L839.2,451.3L842.4,452.5L843.6,452.3L845.2,450.1L848.8,441.7L850.4,439.9L851.2,440.1L852.4,441.6L857.6,453.3L858.0,454.0L858.4,453.8L860.8,415.9L862.8,455.1L863.6,461.4L865.6,457.3L870.8,453.3L872.8,454.0L876.4,458.2L878.0,458.2L880.0,454.9L884.0,444.0L885.2,442.2L886.4,441.7L888.4,442.7L899.2,453.9L900.8,454.6L905.2,454.8L907.2,456.3L909.2,459.0L909.6,458.9L910.4,452.2L912.0,419.2L912.4,419.6L912.8,425.9L914.0,453.3L914.8,459.1L916.4,453.8L917.6,452.5L919.2,453.8L922.4,458.5L924.4,459.0L929.6,452.6L934.0,449.1L937.6,443.9L939.2,442.6L941.2,443.2L945.2,449.0L946.0,442.7L947.6,410.9L950.4,455.8L950.8,456.1L952.4,454.4L955.2,458.6L956.4,459.5L958.4,458.5L962.8,452.5L964.0,452.2L967.2,453.0L968.8,452.2L973.2,444.3L975.2,442.2L976.4,442.2L978.0,443.3L982.4,448.4L984.4,452.0L984.8,451.6L987.2,416.9L989.2,459.2L990.0,463.6L992.0,457.5L995.2,452.8L996.0,452.4L997.2,452.8L1000.8,457.5L1002.8,458.3L1004.4,456.8L1009.2,447.6L1011.2,445.5L1012.4,435.9L1014.0,402.6L1016.0,440.2L1016.8,447.1L1017.2,447.2L1018.4,445.8L1018.8,446.0L1022.0,452.6L1023.6,454.5L1025.2,454.5L1029.2,451.9L1030.4,452.3L1033.2,454.5L1034.4,454.7L1036.4,452.1L1040.0,441.9"/>
<text x="46" y="44">I</text>
<text x="296" y="44">aVR</text>
<text x="546" y="44">V1</text>
<text x="796" y="44">V4</text>
<text x="46" y="164">II</text>
<text x="296" y="164">aVL</text>
<text x="546" y="164">V2</text>
<text x="796" y="164">V5</text>
<text x="46" y="284">III</text>
<text x="296" y="284">aVF</text>
<text x="546" y="284">V3</text>
<text x="796" y="284">V6</text>
<text x="46" y="404">II</text>
<text class="note" x="1050" y="528" text-anchor="end">Stylised teaching drawing · not a real patient recording · 25 mm/s · 10 mm/mV</text>
</svg>
